{
  "accessors": [
    {
      "bufferView": 2,
      "componentType": 5126,
      "count": 2522,
      "max": [
        251.91781616210938,
        278.59454345703125,
        333.4685363769531
      ],
      "min": [
        -133.90670776367188,
        -120.58152770996094,
        -91.60773468017578
      ],
      "type": "VEC3"
    },
    {
      "bufferView": 2,
      "byteOffset": 30264,
      "componentType": 5126,
      "count": 2522,
      "max": [
        0.9258211851119995,
        0.8622655868530273,
        0.6317399740219116
      ],
      "min": [
        -0.9913310408592224,
        -0.9998238682746887,
        -0.9866004586219788
      ],
      "type": "VEC3"
    },
    {
      "bufferView": 1,
      "componentType": 5126,
      "count": 2522,
      "max": [
        1.0,
        1.0
      ],
      "min": [
        0.0,
        0.0
      ],
      "type": "VEC2"
    },
    {
      "bufferView": 0,
      "componentType": 5125,
      "count": 9714,
      "type": "SCALAR"
    },
    {
      "bufferView": 2,
      "byteOffset": 60528,
      "componentType": 5126,
      "count": 2522,
      "max": [
        556.846435546875,
        687.0223388671875,
        959.03369140625
      ],
      "min": [
        194.32972717285156,
        319.06231689453125,
        581.7603759765625
      ],
      "type": "VEC3"
    },
    {
      "bufferView": 2,
      "byteOffset": 90792,
      "componentType": 5126,
      "count": 2522,
      "max": [
        0.9913288950920105,
        0.999823808670044,
        0.9865978360176086
      ],
      "min": [
        -0.9258215427398682,
        -0.8622653484344482,
        -0.6317400336265564
      ],
      "type": "VEC3"
    },
    {
      "bufferView": 1,
      "byteOffset": 20176,
      "componentType": 5126,
      "count": 2522,
      "max": [
        1.0,
        1.0
      ],
      "min": [
        0.0,
        0.0
      ],
      "type": "VEC2"
    },
    {
      "bufferView": 0,
      "byteOffset": 38856,
      "componentType": 5125,
      "count": 9714,
      "type": "SCALAR"
    },
    {
      "bufferView": 2,
      "byteOffset": 121056,
      "componentType": 5126,
      "count": 722,
      "max": [
        462.0367736816406,
        560.0056762695313,
        764.4108276367188
      ],
      "min": [
        -15.78921890258789,
        37.651180267333984,
        150.81809997558594
      ],
      "type": "VEC3"
    },
    {
      "bufferView": 2,
      "byteOffset": 129720,
      "componentType": 5126,
      "count": 722,
      "max": [
        0.9258211851119995,
        0.8622655868530273,
        0.6317404508590698
      ],
      "min": [
        -0.9258213043212891,
        -0.8622653484344482,
        -0.6317400336265564
      ],
      "type": "VEC3"
    },
    {
      "bufferView": 1,
      "byteOffset": 40352,
      "componentType": 5126,
      "count": 722,
      "max": [
        1.0,
        0.7208484411239624
      ],
      "min": [
        0.0,
        0.22404253482818604
      ],
      "type": "VEC2"
    },
    {
      "bufferView": 0,
      "byteOffset": 77712,
      "componentType": 5125,
      "count": 2160,
      "type": "SCALAR"
    },
    {
      "bufferView": 2,
      "byteOffset": 138384,
      "componentType": 5126,
      "count": 4322,
      "max": [
        138.57467651367188,
        145.96310424804688,
        0.800000011920929
      ],
      "min": [
        -138.57467651367188,
        -145.96310424804688,
        -47.79999923706055
      ],
      "type": "VEC3"
    },
    {
      "bufferView": 2,
      "byteOffset": 190248,
      "componentType": 5126,
      "count": 4322,
      "max": [
        1.0,
        0.9998065233230591,
        1.0
      ],
      "min": [
        -1.0,
        -0.9998065233230591,
        -1.0
      ],
      "type": "VEC3"
    },
    {
      "bufferView": 1,
      "byteOffset": 46128,
      "componentType": 5126,
      "count": 4322,
      "max": [
        1.0,
        1.0
      ],
      "min": [
        0.0,
        0.0
      ],
      "type": "VEC2"
    },
    {
      "bufferView": 0,
      "byteOffset": 86352,
      "componentType": 5125,
      "count": 17268,
      "type": "SCALAR"
    }
  ],
  "asset": {
    "extras": {
      "author": "lalalalapha (https://sketchfab.com/lalalalapha)",
      "license": "COPYRIGHT TO lalalalapha",
      "source": "https://sketchfab.com/3d-models/longer-manycolors-076656778af94f6089c9f5667578cfa5",
      "title": "Longer_ManyColors"
    },
    "generator": "Sketchfab-15.30.0",
    "version": "2.0"
  },
  "bufferViews": [
    {
      "buffer": 0,
      "byteLength": 155424,
      "name": "floatBufferViews",
      "target": 34963
    },
    {
      "buffer": 0,
      "byteLength": 80704,
      "byteOffset": 155424,
      "byteStride": 8,
      "name": "floatBufferViews",
      "target": 34962
    },
    {
      "buffer": 0,
      "byteLength": 242112,
      "byteOffset": 236128,
      "byteStride": 12,
      "name": "floatBufferViews",
      "target": 34962
    }
  ],
  "buffers": [
    {
      "byteLength": 478240,
      "uri": "scene.bin"
    }
  ],
  "extensionsUsed": [
    "KHR_texture_transform",
    "KHR_materials_specular"
  ],
  "images": [
    {
      "uri": "textures/main_purple_2_baseColor.png"
    }
  ],
  "materials": [
    {
      "doubleSided": true,
      "name": "main_purple_3",
      "pbrMetallicRoughness": {
        "baseColorFactor": [
          0.05349303735338944,
          0.5757194013916181,
          0.1777951412856932,
          1.0
        ],
        "metallicFactor": 0.0,
        "roughnessFactor": 0.6
      }
    },
    {
      "doubleSided": true,
      "name": "main_purple_1",
      "pbrMetallicRoughness": {
        "baseColorFactor": [
          0.1470272664975952,
          0.0382043715953465,
          0.45078578283822346,
          1.0
        ],
        "metallicFactor": 0.0,
        "roughnessFactor": 0.6
      }
    },
    {
      "doubleSided": true,
      "name": "main_purple_2",
      "pbrMetallicRoughness": {
        "baseColorTexture": {
          "extensions": {
            "KHR_texture_transform": {
              "scale": [
                4.000000000000002,
                4.000000000000002
              ]
            }
          },
          "index": 0
        },
        "metallicFactor": 0.02361208183003079,
        "roughnessFactor": 0.6
      }
    },
    {
      "doubleSided": true,
      "extensions": {
        "KHR_materials_specular": {
          "specularColorFactor": [
            1.0,
            1.0,
            1.0
          ],
          "specularFactor": 0.0
        }
      },
      "name": "Main_yellow_1",
      "pbrMetallicRoughness": {
        "baseColorFactor": [
          0.9213560469775339,
          0.5239495695480866,
          0.02252206113172229,
          1.0
        ],
        "metallicFactor": 0.0,
        "roughnessFactor": 0.5041462815693534
      }
    }
  ],
  "meshes": [
    {
      "name": "Flower_main_purple_3_0",
      "primitives": [
        {
          "attributes": {
            "NORMAL": 1,
            "POSITION": 0,
            "TEXCOORD_0": 2
          },
          "indices": 3,
          "material": 0,
          "mode": 4
        }
      ]
    },
    {
      "name": "Flower_main_purple_1_0",
      "primitives": [
        {
          "attributes": {
            "NORMAL": 5,
            "POSITION": 4,
            "TEXCOORD_0": 6
          },
          "indices": 7,
          "material": 1,
          "mode": 4
        }
      ]
    },
    {
      "name": "Flower_main_purple_2_0",
      "primitives": [
        {
          "attributes": {
            "NORMAL": 9,
            "POSITION": 8,
            "TEXCOORD_0": 10
          },
          "indices": 11,
          "material": 2,
          "mode": 4
        }
      ]
    },
    {
      "name": "Extrude_2_Main_yellow_1_0",
      "primitives": [
        {
          "attributes": {
            "NORMAL": 13,
            "POSITION": 12,
            "TEXCOORD_0": 14
          },
          "indices": 15,
          "material": 3,
          "mode": 4
        }
      ]
    }
  ],
  "nodes": [
    {
      "children": [
        1
      ],
      "matrix": [
        1.0,
        0.0,
        0.0,
        0.0,
        0.0,
        2.220446049250313e-16,
        -1.0,
        0.0,
        0.0,
        1.0,
        2.220446049250313e-16,
        0.0,
        0.0,
        0.0,
        0.0,
        1.0
      ],
      "name": "Sketchfab_model"
    },
    {
      "children": [
        2
      ],
      "matrix": [
        0.009999999776482582,
        0.0,
        0.0,
        0.0,
        0.0,
        0.0,
        0.009999999776482582,
        0.0,
        0.0,
        -0.009999999776482582,
        0.0,
        0.0,
        0.0,
        0.0,
        0.0,
        1.0
      ],
      "name": "Flowers.c4d.fbx"
    },
    {
      "children": [
        3
      ],
      "name": "RootNode"
    },
    {
      "children": [
        4,
        8
      ],
      "matrix": [
        -0.2515599708457654,
        0.8619393616131666,
        -0.44020236025033327,
        0.0,
        0.8909894076149335,
        0.02862427727419181,
        -0.45312087379475235,
        0.0,
        -0.3779622422756899,
        -0.5062027139915558,
        -0.7751795635602861,
        0.0,
        -49.246734619140625,
        -111.88388061523438,
        -720.1336669921875,
        1.0
      ],
      "name": "Longer"
    },
    {
      "children": [
        5,
        6,
        7
      ],
      "matrix": [
        -0.25155997084576587,
        0.8909894076149334,
        -0.37796224227569053,
        0.0,
        0.8619393616131668,
        0.02862427727419159,
        -0.5062027139915558,
        0.0,
        -0.4402023602503332,
        -0.453120873794753,
        -0.7751795635602861,
        0.0,
        -2.2737367544323206e-13,
        0.0,
        688.5390014648438,
        1.0
      ],
      "name": "Flower"
    },
    {
      "mesh": 0,
      "name": "Flower_main_purple_3_0"
    },
    {
      "mesh": 1,
      "name": "Flower_main_purple_1_0"
    },
    {
      "mesh": 2,
      "name": "Flower_main_purple_2_0"
    },
    {
      "children": [
        9
      ],
      "matrix": [
        0.5,
        -1.387778780781445e-17,
        -8.32667268468867e-17,
        0.0,
        1.3877787807814441e-17,
        0.5,
        -5.551115123125783e-17,
        0.0,
        8.32667268468867e-17,
        5.551115123125783e-17,
        0.5,
        0.0,
        1.9895196601282805e-13,
        -1.1368683772161603e-13,
        -424.17095947265625,
        1.0
      ],
      "name": "Extrude"
    },
    {
      "children": [
        10
      ],
      "matrix": [
        1.0,
        0.0,
        -1.6653345369377338e-16,
        0.0,
        -9.244463733058725e-33,
        1.0,
        -5.5511151231257815e-17,
        0.0,
        1.6653345369377338e-16,
        5.5511151231257815e-17,
        1.0,
        0.0,
        0.0,
        0.0,
        0.0,
        1.0
      ],
      "name": "Extrude_2"
    },
    {
      "mesh": 3,
      "name": "Extrude_2_Main_yellow_1_0"
    }
  ],
  "samplers": [
    {
      "magFilter": 9729,
      "minFilter": 9987,
      "wrapS": 10497,
      "wrapT": 10497
    }
  ],
  "scene": 0,
  "scenes": [
    {
      "name": "Sketchfab_Scene",
      "nodes": [
        0
      ]
    }
  ],
  "textures": [
    {
      "sampler": 0,
      "source": 0
    }
  ]
}
